<svg width="48" height="48" viewBox="0 0 48 48" fill="none" xmlns="http://www.w3.org/2000/svg">
<path d="M23.3327 16.2333C25.6299 16.2333 25.9431 16.2333 26.8829 16.2333C27.7182 16.2333 28.1359 16.4421 28.4491 16.5465C28.8668 16.7553 29.1801 16.8598 29.4933 17.173C29.8066 17.4863 30.0154 17.7995 30.1198 18.2172C30.2243 18.5304 30.3287 18.9481 30.4331 19.7835C30.4331 20.7232 30.4331 20.9321 30.4331 23.3337C30.4331 25.7353 30.4331 25.9441 30.4331 26.8839C30.4331 27.7192 30.2243 28.1369 30.1198 28.4501C29.911 28.8678 29.8066 29.181 29.4933 29.4943C29.1801 29.8076 28.8668 30.0164 28.4491 30.1208C28.1359 30.2252 27.7182 30.3296 26.8829 30.4341C25.9431 30.4341 25.7343 30.4341 23.3327 30.4341C20.9311 30.4341 20.7222 30.4341 19.7825 30.4341C18.9471 30.4341 18.5295 30.2252 18.2162 30.1208C17.7985 29.912 17.4853 29.8076 17.172 29.4943C16.8588 29.181 16.65 28.8678 16.5455 28.4501C16.4411 28.1369 16.3367 27.7192 16.2323 26.8839C16.2323 25.9441 16.2323 25.7353 16.2323 23.3337C16.2323 20.9321 16.2323 20.7232 16.2323 19.7835C16.2323 18.9481 16.4411 18.5304 16.5455 18.2172C16.7544 17.7995 16.8588 17.4863 17.172 17.173C17.4853 16.8598 17.7985 16.6509 18.2162 16.5465C18.5295 16.4421 18.9471 16.3377 19.7825 16.2333C20.7222 16.2333 21.0355 16.2333 23.3327 16.2333ZM23.3327 14.667C20.9311 14.667 20.7222 14.667 19.7825 14.667C18.8427 14.667 18.2162 14.8758 17.6941 15.0847C17.172 15.2935 16.65 15.6068 16.1279 16.1288C15.6058 16.6509 15.3969 17.0686 15.0837 17.6951C14.8749 18.2172 14.7704 18.8437 14.666 19.7835C14.666 20.7232 14.666 21.0365 14.666 23.3337C14.666 25.7353 14.666 25.9441 14.666 26.8839C14.666 27.8236 14.8749 28.4501 15.0837 28.9722C15.2925 29.4943 15.6058 30.0164 16.1279 30.5385C16.65 31.0606 17.0676 31.2694 17.6941 31.5827C18.2162 31.7915 18.8427 31.8959 19.7825 32.0003C20.7222 32.0003 21.0355 32.0003 23.3327 32.0003C25.6299 32.0003 25.9431 32.0003 26.8829 32.0003C27.8226 32.0003 28.4491 31.7915 28.9712 31.5827C29.4933 31.3738 30.0154 31.0606 30.5375 30.5385C31.0596 30.0164 31.2684 29.5987 31.5817 28.9722C31.7905 28.4501 31.8949 27.8236 31.9993 26.8839C31.9993 25.9441 31.9993 25.6308 31.9993 23.3337C31.9993 21.0365 31.9993 20.7232 31.9993 19.7835C31.9993 18.8437 31.7905 18.2172 31.5817 17.6951C31.3728 17.173 31.0596 16.6509 30.5375 16.1288C30.0154 15.6068 29.5977 15.3979 28.9712 15.0847C28.4491 14.8758 27.8226 14.7714 26.8829 14.667C25.9431 14.667 25.7343 14.667 23.3327 14.667Z" fill="white"/>
<path d="M23.3327 18.8437C20.8267 18.8437 18.8427 20.8276 18.8427 23.3337C18.8427 25.8397 20.8267 27.8236 23.3327 27.8236C25.8387 27.8236 27.8226 25.8397 27.8226 23.3337C27.8226 20.8276 25.8387 18.8437 23.3327 18.8437ZM23.3327 26.2574C21.7664 26.2574 20.409 25.0043 20.409 23.3337C20.409 21.7674 21.662 20.41 23.3327 20.41C24.8989 20.41 26.2564 21.663 26.2564 23.3337C26.2564 24.8999 24.8989 26.2574 23.3327 26.2574Z" fill="white"/>
<path d="M27.9271 19.7835C28.5037 19.7835 28.9712 19.316 28.9712 18.7393C28.9712 18.1626 28.5037 17.6951 27.9271 17.6951C27.3504 17.6951 26.8829 18.1626 26.8829 18.7393C26.8829 19.316 27.3504 19.7835 27.9271 19.7835Z" fill="white"/>
</svg>
