<svg width="48" height="48" viewBox="0 0 48 48" fill="none" xmlns="http://www.w3.org/2000/svg">
<path d="M32.866 19.1544C32.6327 18.4044 32.0494 17.8687 31.2327 17.6544C29.8327 17.333 23.8827 17.333 23.8827 17.333C23.8827 17.333 18.0494 17.333 16.5327 17.6544C15.716 17.8687 15.1327 18.4044 14.8993 19.1544C14.666 20.5473 14.666 23.333 14.666 23.333C14.666 23.333 14.666 26.1187 15.016 27.5116C15.2494 28.2616 15.8327 28.7973 16.6493 29.0116C18.0493 29.333 23.9993 29.333 23.9993 29.333C23.9993 29.333 29.8327 29.333 31.3493 29.0116C32.166 28.7973 32.7494 28.2616 32.9827 27.5116C33.3327 26.1187 33.3327 23.333 33.3327 23.333C33.3327 23.333 33.3327 20.5473 32.866 19.1544ZM22.1327 25.9044V20.7616L27.0327 23.333L22.1327 25.9044Z" fill="white"/>
</svg>
